<svg width="32" height="32" viewBox="0 0 32 32" fill="none" xmlns="http://www.w3.org/2000/svg">
<path fill-rule="evenodd" clip-rule="evenodd" d="M11 6.66667C11 5.34059 11.5268 4.06882 12.4645 3.13114C13.4022 2.19346 14.6739 1.66667 16 1.66667C17.3261 1.66667 18.5979 2.19346 19.5356 3.13114C20.4732 4.06882 21 5.34059 21 6.66667V15.1307C21 15.2267 21.0534 15.3707 21.2107 15.496C22.5579 16.5754 23.5366 18.0465 24.0116 19.7061C24.4867 21.3658 24.4346 23.1319 23.8626 24.7607C23.2905 26.3894 22.2268 27.8003 20.8184 28.7984C19.4099 29.7966 17.7263 30.3327 16 30.3327C14.2738 30.3327 12.5901 29.7966 11.1817 28.7984C9.77321 27.8003 8.7095 26.3894 8.13749 24.7607C7.56547 23.1319 7.51338 21.3658 7.98842 19.7061C8.46346 18.0465 9.44218 16.5754 10.7894 15.496C10.9467 15.3693 11 15.2267 11 15.1307V6.66667ZM16 3.66667C15.2044 3.66667 14.4413 3.98274 13.8787 4.54535C13.3161 5.10796 13 5.87102 13 6.66667V15.1307C13 15.9347 12.5867 16.6187 12.04 17.056C11.016 17.8762 10.2719 18.9943 9.91074 20.2556C9.54954 21.517 9.589 22.8594 10.0237 24.0973C10.4583 25.3353 11.2667 26.4077 12.3372 27.1663C13.4077 27.925 14.6873 28.3325 15.9994 28.3325C17.3114 28.3325 18.5911 27.925 19.6615 27.1663C20.732 26.4077 21.5404 25.3353 21.975 24.0973C22.4097 22.8594 22.4492 21.517 22.088 20.2556C21.7268 18.9943 20.9827 17.8762 19.9587 17.056C19.4134 16.6187 19 15.936 19 15.1307V6.66667C19 5.87102 18.684 5.10796 18.1213 4.54535C17.5587 3.98274 16.7957 3.66667 16 3.66667ZM16 5.66667C16.2652 5.66667 16.5196 5.77203 16.7071 5.95956C16.8947 6.1471 17 6.40145 17 6.66667V17.7827C18.0338 18.0278 18.9416 18.644 19.5509 19.5144C20.1603 20.3847 20.4287 21.4486 20.3054 22.5038C20.182 23.5591 19.6753 24.5323 18.8816 25.2386C18.0879 25.9449 17.0625 26.3351 16 26.3351C14.9376 26.3351 13.9121 25.9449 13.1184 25.2386C12.3247 24.5323 11.8181 23.5591 11.6947 22.5038C11.5713 21.4486 11.8398 20.3847 12.4491 19.5144C13.0585 18.644 13.9662 18.0278 15 17.7827V6.66667C15 6.40145 15.1054 6.1471 15.2929 5.95956C15.4805 5.77203 15.7348 5.66667 16 5.66667ZM16 19.6667C15.3812 19.6667 14.7877 19.9125 14.3501 20.3501C13.9125 20.7877 13.6667 21.3812 13.6667 22C13.6667 22.6188 13.9125 23.2123 14.3501 23.6499C14.7877 24.0875 15.3812 24.3333 16 24.3333C16.6189 24.3333 17.2124 24.0875 17.6499 23.6499C18.0875 23.2123 18.3334 22.6188 18.3334 22C18.3334 21.3812 18.0875 20.7877 17.6499 20.3501C17.2124 19.9125 16.6189 19.6667 16 19.6667Z" fill="#1B1B1B"/>
</svg>
